<svg width="7" height="2" viewBox="0 0 7 2" fill="none" xmlns="http://www.w3.org/2000/svg">
<path d="M6.23694 1.17016C6.2959 1.17016 6.34851 1.18014 6.39477 1.20009C6.44193 1.22005 6.47912 1.24862 6.50633 1.28581C6.53354 1.32299 6.54805 1.36608 6.54987 1.41506H6.42062C6.41336 1.32435 6.34987 1.279 6.23014 1.279C6.17844 1.279 6.13808 1.28898 6.10905 1.30893C6.08093 1.32889 6.06687 1.35429 6.06687 1.38512C6.06687 1.41143 6.0764 1.43048 6.09545 1.44227C6.1154 1.45406 6.14896 1.46494 6.19613 1.47492L6.32538 1.50213C6.39522 1.51664 6.44873 1.53751 6.48592 1.56472C6.52402 1.59193 6.54306 1.63501 6.54306 1.69397C6.54306 1.73751 6.53037 1.77651 6.50497 1.81097C6.47957 1.84453 6.44374 1.87084 6.39749 1.88989C6.35213 1.90893 6.29953 1.91846 6.23966 1.91846C6.13173 1.91846 6.04828 1.89442 5.98932 1.84635C5.93037 1.79737 5.89499 1.73297 5.8832 1.65315H6.01245C6.02969 1.75746 6.10542 1.80961 6.23966 1.80961C6.29862 1.80961 6.34352 1.79918 6.37436 1.77832C6.4052 1.75655 6.42062 1.7307 6.42062 1.70077C6.42062 1.68082 6.41517 1.66585 6.40429 1.65587C6.39431 1.64499 6.38025 1.63682 6.36211 1.63138C6.34397 1.62594 6.31359 1.61868 6.27096 1.60961L6.1417 1.5824C6.07912 1.5697 6.03059 1.54839 5.99613 1.51846C5.96166 1.48853 5.94443 1.44499 5.94443 1.38785C5.94443 1.32073 5.97164 1.26766 6.02606 1.22866C6.08048 1.18966 6.15077 1.17016 6.23694 1.17016Z" fill="white"/>
<path d="M5.35886 1.19057H5.52213V1.00009H5.64457V1.19057H5.82825V1.29941H5.64457V1.7688C5.64457 1.77515 5.64639 1.78014 5.65002 1.78376C5.65365 1.78739 5.65863 1.78921 5.66498 1.78921H5.84866V1.89805H5.75342C5.67541 1.89805 5.61736 1.879 5.57927 1.84091C5.54117 1.80281 5.52213 1.74476 5.52213 1.66676V1.29941H5.35886V1.19057Z" fill="white"/>
<path d="M4.65908 1.68716C4.65908 1.62458 4.6804 1.5756 4.72303 1.54023C4.76657 1.50395 4.83142 1.4849 4.91759 1.48308L5.17609 1.47764V1.44907C5.17609 1.39556 5.16067 1.35383 5.12983 1.3239C5.09899 1.29397 5.05092 1.279 4.98561 1.279C4.92756 1.279 4.88357 1.2917 4.85364 1.3171C4.82371 1.34249 4.80874 1.37515 4.80874 1.41506H4.67949C4.68221 1.3688 4.69582 1.32707 4.72031 1.28989C4.7448 1.2527 4.77972 1.22367 4.82507 1.20281C4.87042 1.18104 4.92394 1.17016 4.98561 1.17016C5.08902 1.17016 5.16702 1.1951 5.21963 1.24499C5.27224 1.29488 5.29854 1.36517 5.29854 1.45587V1.89805H5.17609V1.82458C5.17609 1.81914 5.17337 1.81642 5.16793 1.81642C5.16339 1.81642 5.15886 1.81914 5.15432 1.82458C5.10534 1.88716 5.03323 1.91846 4.938 1.91846C4.85092 1.91846 4.78244 1.89714 4.73255 1.85451C4.68357 1.81188 4.65908 1.7561 4.65908 1.68716ZM4.78153 1.68716C4.78153 1.72526 4.7965 1.75519 4.82643 1.77696C4.85636 1.79873 4.89809 1.80961 4.9516 1.80961C5.02144 1.80961 5.07632 1.79057 5.11623 1.75247C5.15614 1.71438 5.17609 1.65859 5.17609 1.58512V1.57968L4.91759 1.58512C4.87133 1.58603 4.83686 1.59556 4.81419 1.6137C4.79242 1.63093 4.78153 1.65542 4.78153 1.68716Z" fill="white"/>
<path d="M4.57017 1.61914C4.55566 1.71165 4.51802 1.78467 4.45725 1.83819C4.39738 1.8917 4.31484 1.91846 4.20963 1.91846C4.13707 1.91846 4.07312 1.90349 4.01779 1.87356C3.96246 1.84272 3.91938 1.79918 3.88854 1.74295C3.8577 1.68671 3.84228 1.6205 3.84228 1.54431C3.84228 1.46812 3.8577 1.4019 3.88854 1.34567C3.91938 1.28943 3.96246 1.24635 4.01779 1.21642C4.07312 1.18558 4.13707 1.17016 4.20963 1.17016C4.27766 1.17016 4.33616 1.18286 4.38514 1.20825C4.43503 1.23274 4.47357 1.2663 4.50078 1.30893C4.5289 1.35066 4.54523 1.39737 4.54976 1.44907H4.42051C4.40509 1.33569 4.3348 1.279 4.20963 1.279C4.13616 1.279 4.07675 1.30259 4.0314 1.34975C3.98695 1.39601 3.96473 1.46086 3.96473 1.54431C3.96473 1.62775 3.98695 1.69306 4.0314 1.74023C4.07675 1.78648 4.13616 1.80961 4.20963 1.80961C4.27766 1.80961 4.32936 1.79329 4.36473 1.76063C4.40101 1.72798 4.42641 1.68082 4.44092 1.61914H4.57017Z" fill="white"/>
<path d="M3.42668 1.19057H3.54913V1.2858C3.54913 1.29215 3.5523 1.29533 3.55865 1.29533C3.565 1.29533 3.56954 1.2917 3.57226 1.28444C3.58768 1.24998 3.60899 1.22549 3.6362 1.21098C3.66341 1.19556 3.70105 1.18785 3.74913 1.18785H3.80763V1.31029H3.73008C3.66931 1.31029 3.62396 1.32481 3.59402 1.35383C3.56409 1.38286 3.54913 1.43048 3.54913 1.49669V1.89805H3.42668V1.19057Z" fill="white"/>
<path d="M2.58931 1.54431C2.58931 1.46812 2.60427 1.4019 2.63421 1.34567C2.66414 1.28943 2.70586 1.24635 2.75938 1.21642C2.8138 1.18558 2.87729 1.17016 2.94985 1.17016C3.02151 1.17016 3.08228 1.18513 3.13216 1.21506C3.18296 1.24499 3.2206 1.2849 3.24509 1.33478C3.27049 1.38376 3.28318 1.43773 3.28318 1.49669V1.57832H2.71856C2.72309 1.64907 2.74668 1.70531 2.78931 1.74703C2.83285 1.78875 2.8909 1.80961 2.96346 1.80961C3.02241 1.80961 3.06731 1.79782 3.09815 1.77424C3.1299 1.74975 3.15303 1.71619 3.16754 1.67356H3.29679C3.27956 1.73977 3.24418 1.79737 3.19067 1.84635C3.13806 1.89442 3.06232 1.91846 2.96346 1.91846C2.88908 1.91846 2.82332 1.90349 2.76618 1.87356C2.70994 1.84272 2.66641 1.79918 2.63557 1.74295C2.60473 1.68671 2.58931 1.6205 2.58931 1.54431ZM3.14713 1.47628C3.14713 1.4146 3.13126 1.36653 3.09951 1.33206C3.06777 1.29669 3.01788 1.279 2.94985 1.279C2.88636 1.279 2.83421 1.29624 2.79339 1.3307C2.75348 1.36426 2.72899 1.41279 2.71992 1.47628H3.14713Z" fill="white"/>
<path d="M2.18837 1.17016C2.24733 1.17016 2.29994 1.18014 2.3462 1.20009C2.39336 1.22005 2.43055 1.24862 2.45776 1.28581C2.48497 1.32299 2.49948 1.36608 2.5013 1.41506H2.37205C2.36479 1.32435 2.3013 1.279 2.18157 1.279C2.12987 1.279 2.08951 1.28898 2.06048 1.30893C2.03236 1.32889 2.01831 1.35429 2.01831 1.38512C2.01831 1.41143 2.02783 1.43048 2.04688 1.44227C2.06683 1.45406 2.10039 1.46494 2.14756 1.47492L2.27681 1.50213C2.34665 1.51664 2.40016 1.53751 2.43735 1.56472C2.47545 1.59193 2.4945 1.63501 2.4945 1.69397C2.4945 1.73751 2.4818 1.77651 2.4564 1.81097C2.431 1.84453 2.39518 1.87084 2.34892 1.88989C2.30357 1.90893 2.25096 1.91846 2.19109 1.91846C2.08316 1.91846 1.99971 1.89442 1.94076 1.84635C1.8818 1.79737 1.84642 1.73297 1.83463 1.65315H1.96388C1.98112 1.75746 2.05685 1.80961 2.19109 1.80961C2.25005 1.80961 2.29495 1.79918 2.32579 1.77832C2.35663 1.75655 2.37205 1.7307 2.37205 1.70077C2.37205 1.68082 2.3666 1.66585 2.35572 1.65587C2.34574 1.64499 2.33168 1.63682 2.31354 1.63138C2.2954 1.62594 2.26502 1.61868 2.22239 1.60961L2.09314 1.5824C2.03055 1.5697 1.98202 1.54839 1.94756 1.51846C1.91309 1.48853 1.89586 1.44499 1.89586 1.38785C1.89586 1.32073 1.92307 1.26766 1.97749 1.22866C2.03191 1.18966 2.10221 1.17016 2.18837 1.17016Z" fill="white"/>
<path d="M1.1068 1.68716C1.1068 1.62458 1.12811 1.5756 1.17074 1.54023C1.21428 1.50395 1.27913 1.4849 1.3653 1.48308L1.6238 1.47764V1.44907C1.6238 1.39556 1.60838 1.35383 1.57754 1.3239C1.54671 1.29397 1.49863 1.279 1.43333 1.279C1.37528 1.279 1.33129 1.2917 1.30135 1.3171C1.27142 1.34249 1.25646 1.37515 1.25646 1.41506H1.12721C1.12993 1.3688 1.14353 1.32707 1.16802 1.28989C1.19251 1.2527 1.22743 1.22367 1.27278 1.20281C1.31813 1.18104 1.37165 1.17016 1.43333 1.17016C1.53673 1.17016 1.61473 1.1951 1.66734 1.24499C1.71995 1.29488 1.74625 1.36517 1.74625 1.45587V1.89805H1.6238V1.82458C1.6238 1.81914 1.62108 1.81642 1.61564 1.81642C1.6111 1.81642 1.60657 1.81914 1.60203 1.82458C1.55305 1.88716 1.48095 1.91846 1.38571 1.91846C1.29863 1.91846 1.23015 1.89714 1.18027 1.85451C1.13129 1.81188 1.1068 1.7561 1.1068 1.68716ZM1.22925 1.68716C1.22925 1.72526 1.24421 1.75519 1.27414 1.77696C1.30408 1.79873 1.3458 1.80961 1.39931 1.80961C1.46915 1.80961 1.52403 1.79057 1.56394 1.75247C1.60385 1.71438 1.6238 1.65859 1.6238 1.58512V1.57968L1.3653 1.58512C1.31904 1.58603 1.28457 1.59556 1.2619 1.6137C1.24013 1.63093 1.22925 1.65542 1.22925 1.68716Z" fill="white"/>
<path d="M0.970105 0.918457V1.89805H0.847656V0.918457H0.970105Z" fill="white"/>
</svg>
